<?xml version="1.0" standalone="no"?>
<!DOCTYPE svg PUBLIC "-//W3C//DTD SVG 20010904//EN"
 "http://www.w3.org/TR/2001/REC-SVG-20010904/DTD/svg10.dtd">
<svg version="1.0" xmlns="http://www.w3.org/2000/svg"
 width="4096.000000pt" height="4096.000000pt" viewBox="0 0 4096.000000 4096.000000"
 preserveAspectRatio="xMidYMid meet">
<metadata>
Created by potrace 1.11, written by Peter Selinger 2001-2013
</metadata>
<g transform="translate(0.000000,4096.000000) scale(0.100000,-0.100000)"
fill="#000000" stroke="none">
<path d="M0 20480 l0 -20480 20480 0 20480 0 0 20480 0 20480 -20480 0 -20480
0 0 -20480z m29260 8255 c1331 -109 2498 -566 3500 -1370 165 -133 345 -294
345 -310 0 -13 -1130 -1275 -1141 -1275 -3 0 -51 41 -108 90 -899 790 -2088
1205 -3292 1150 -873 -40 -1611 -269 -2254 -700 -1270 -851 -2050 -2457 -2304
-4740 -43 -386 -86 -1028 -86 -1290 l0 -92 54 49 c30 26 109 99 177 162 945
869 2112 1499 3207 1731 579 122 1145 149 1797 84 2001 -198 3390 -1225 3967
-2934 273 -810 365 -1870 238 -2743 -128 -871 -482 -1694 -1018 -2364 -654
-820 -1547 -1418 -2592 -1736 -700 -214 -1450 -288 -2234 -221 -2056 175
-3676 1282 -4609 3149 -661 1325 -968 2971 -917 4920 17 659 54 1170 126 1710
355 2690 1421 4666 3119 5777 884 579 1895 899 3055 968 205 12 740 4 970 -15z
m-15160 -7400 l0 -7125 2075 0 2075 0 0 -855 0 -855 -5355 0 -5355 0 0 855 0
855 2250 0 2250 0 0 5870 0 5870 -1710 0 -1710 0 2 667 3 668 55 8 c1245 185
2355 480 3255 865 180 77 481 219 565 265 l65 37 768 0 767 0 0 -7125z"/>
<path d="M27815 20693 c-259 -20 -418 -43 -635 -89 -1127 -241 -2217 -927
-3102 -1950 l-88 -101 25 -209 c33 -274 68 -495 116 -735 434 -2183 1586
-3478 3313 -3729 430 -62 903 -58 1287 10 591 106 1126 355 1558 726 813 698
1224 1743 1163 2956 -24 479 -95 866 -227 1233 -57 161 -191 436 -279 573
-507 795 -1355 1234 -2531 1311 -145 10 -501 12 -600 4z"/>
</g>
</svg>
